<svg width="16" height="16" viewBox="0 0 16 16" fill="none" xmlns="http://www.w3.org/2000/svg">
<g clip-path="url(#clip0_2_1906)">
<path d="M0.755812 0.0562503C0.452687 0.1625 0.174562 0.4375 0.055812 0.75C-0.00356298 0.90625 -0.00356298 0.990625 0.00268702 2.7125L0.012062 4.51563L0.118312 4.7125C0.246437 4.94688 0.440187 5.13438 0.677687 5.24375L0.855812 5.32812H3.66831H6.48081L6.66831 5.2375C6.90581 5.11875 7.11519 4.90938 7.23394 4.67188L7.32456 4.48438V2.67188V0.859375L7.24019 0.68125C7.13081 0.44375 6.94331 0.25 6.70894 0.121875L6.51206 0.0156253L3.71519 0.00937532C1.09331 0.00312532 0.908937 0.00625032 0.755812 0.0562503Z" fill="#7D7D7E"/>
<path d="M9.45859 0.0437499C9.13984 0.159375 8.88984 0.384375 8.74922 0.684375L8.66797 0.859375V4.67187V8.48437L8.75859 8.67187C8.87734 8.90937 9.08672 9.11875 9.32422 9.2375L9.51172 9.32812H12.3242H15.1367L15.3148 9.24375C15.5523 9.13437 15.7461 8.94687 15.8742 8.7125L15.9805 8.51562V4.67187V0.828125L15.8961 0.65625C15.7867 0.434375 15.5617 0.209375 15.3398 0.0999999L15.168 0.0156249L12.3711 0.00937486C10.1242 0.00312486 9.55234 0.00937486 9.45859 0.0437499Z" fill="#7D7D7E"/>
<path d="M0.817969 6.7C0.508594 6.8 0.261719 7.00937 0.0992188 7.31875L0.0117188 7.48437V11.3281V15.1719L0.0960938 15.3437C0.205469 15.5656 0.430469 15.7906 0.652344 15.9L0.824219 15.9844H3.66797H6.51172L6.70859 15.8781C6.94297 15.75 7.13047 15.5562 7.23984 15.3187L7.32422 15.1406V11.3281V7.51562L7.23359 7.32812C7.11484 7.09062 6.90547 6.88125 6.66797 6.7625L6.48047 6.67187L3.71484 6.66562C1.48984 6.6625 0.924219 6.66875 0.817969 6.7Z" fill="#7D7D7E"/>
<path d="M9.44072 10.7188C9.20947 10.8031 9.00322 10.9594 8.86259 11.1563C8.64697 11.4656 8.65009 11.4438 8.65947 13.3938L8.66884 15.1406L8.75322 15.3188C8.86259 15.5563 9.05009 15.75 9.28447 15.8781L9.48134 15.9844H12.3251H15.1688L15.3407 15.9C15.5626 15.7906 15.7876 15.5656 15.897 15.3438L15.9813 15.1719V13.3281V11.4844L15.8751 11.2875C15.747 11.0531 15.5532 10.8656 15.3157 10.7563L15.1376 10.6719L12.372 10.6656C9.71259 10.6594 9.60009 10.6594 9.44072 10.7188Z" fill="#7D7D7E"/>
</g>
<defs>
<clipPath id="clip0_2_1906">
<rect width="16" height="16" fill="white"/>
</clipPath>
</defs>
</svg>
